<?xml version="1.0" encoding="UTF-8"?>
<svg viewBox="0 0 225 225" version="1.1" xmlns="http://www.w3.org/2000/svg" xmlns:xlink="http://www.w3.org/1999/xlink">
    <!-- Generator: Sketch 50.2 (55047) - http://www.bohemiancoding.com/sketch -->
    <title>Artboard 2 Copy 3</title>
    <desc>Created with Sketch.</desc>
    <defs></defs>
    <g id="Artboard-2-Copy-3" stroke="none" stroke-width="1" fill="none" fill-rule="evenodd">
        <g id="Icon" transform="translate(0.000000, 15.000000)">
            <polygon id="Polygon-Copy" fill="#2196F3" points="168.449932 0 224.59991 97.2546137 168.449932 194.509227 56.1499774 194.509227 0 97.2546137 56.1499774 4.26325641e-14"></polygon>
            <g id="Mountain" transform="translate(18.000000, 43.000000)" fill="#FFFFFF">
                <polygon id="Fill-6" points="27 72.4564333 28.5058955 80 46.558918 80 64 54 43.3236382 70.3392699"></polygon>
                <polygon id="Fill-8" points="60 71.1990926 62.5646505 78 72.7532106 78 104 33 69.5704 59.6426834 69.4237162 64.9725525"></polygon>
                <polygon id="Fill-10" points="101.552963 47.6838393 115.340064 23 139 53.3163516 113.99639 78 95.805828 78 109.382964 60.2740823 91 63.918767 112.106123 45.0333071"></polygon>
                <polygon id="Fill-12" points="132 72.8352156 144.997441 54 163 68.8789312 151.290226 74 148.978204 67.1105793"></polygon>
                <path d="M124.999996,0.000172981457 C125.009288,-0.00859155778 108.205854,0.318373737 105.527833,0.373111014 C107.732186,1.96710329 109.617466,3.39124472 111.096591,4.5346024 L76.5689029,35.2785765 L0,78 L77.2882603,41.8897311 L114.751791,10.3411288 C115.131919,12.1722511 115.587486,14.4989257 116.056654,17.1915525 C117.289698,14.8290022 125.006059,-0.00129973585 124.999996,0.000172981457" id="Fill-1"></path>
                <path d="M118,20.2291393 L137.575149,43.5891073 L152.233737,45.7974714 L189,78 L153.735849,36.9013635 L140.767296,32.6110148 L121.75232,11 L120.672084,13.6614121 C119.782684,15.8510787 118.890468,18.0396685 118,20.2291393" id="Fill-4"></path>
            </g>
        </g>
    </g>
</svg>